<?xml version="1.0" encoding="utf-8"?>
<!-- Generator: Adobe Illustrator 19.0.0, SVG Export Plug-In . SVG Version: 6.00 Build 0)  -->
<svg version="1.1" id="Layer_1" xmlns="http://www.w3.org/2000/svg" xmlns:xlink="http://www.w3.org/1999/xlink" x="0px" y="0px"
	 viewBox="0 0 389.3 600" style="enable-background:new 0 0 389.3 600;" xml:space="preserve">
<style type="text/css">
	.st0{fill:url(#XMLID_48_);}
	.st1{fill:url(#XMLID_52_);}
	.st2{fill:url(#XMLID_54_);}
	.st3{fill:url(#XMLID_88_);}
	.st4{fill:#E6E7E8;}
	.st5{fill:url(#XMLID_89_);}
	.st6{fill:#ED1C24;}
	.st7{fill:#FFDE17;}
	.st8{fill:#00A14B;}
	.st9{fill:#F4F4F4;stroke:#E6E7E8;stroke-width:0.2;stroke-miterlimit:10;}
	.st10{enable-background:new    ;}
	.st11{clip-path:url(#XMLID_90_);}
	.st12{fill:#939598;}
	.st13{clip-path:url(#XMLID_91_);}
	.st14{fill:#D1D3D4;}
	.st15{fill:#498DCB;stroke:#498DCB;stroke-width:0.2;stroke-miterlimit:10;}
	.st16{fill:none;stroke:#FFFFFF;stroke-width:0.2;stroke-miterlimit:10;}
	.st17{fill:url(#XMLID_92_);}
	.st18{fill:url(#XMLID_93_);}
	.st19{fill:url(#XMLID_94_);}
	.st20{fill:url(#XMLID_99_);}
	.st21{fill:url(#XMLID_100_);}
	.st22{clip-path:url(#XMLID_101_);}
	.st23{clip-path:url(#XMLID_102_);}
</style>
<g id="XMLID_30_">
	<g id="XMLID_420_">
		<linearGradient id="XMLID_48_" gradientUnits="userSpaceOnUse" x1="86.7515" y1="278.8044" x2="350.659" y2="278.8044">
			<stop  offset="0" style="stop-color:#EFEFEF"/>
			<stop  offset="1" style="stop-color:#F4F4F4"/>
		</linearGradient>
		<path id="XMLID_55_" class="st0" d="M86.8,11c0-0.5,0.4-0.8,0.9-0.5l262.2,154.1c0.5,0.3,0.9,1,0.9,1.5v380.5
			c0,0.5-0.4,0.8-0.9,0.5L87.6,391.3c-0.5-0.3-0.9-1-0.9-1.5V11z"/>
	</g>
	<linearGradient id="XMLID_52_" gradientUnits="userSpaceOnUse" x1="79.8108" y1="282.6663" x2="349.5228" y2="282.6663">
		<stop  offset="0" style="stop-color:#E2E2E2"/>
		<stop  offset="1" style="stop-color:#EFEFEF"/>
	</linearGradient>
	<path id="XMLID_419_" class="st1" d="M349.5,546L94.3,394.2c-2.4-1.4-4.3-4.8-4.3-7.6V15.9c0-1.4,0.5-2.4,1.3-2.8l-7.1,6
		c-2.4-1.4-4.3-0.3-4.3,2.5v370.7c0,2.8,1.9,6.2,4.3,7.6l255.3,151.7c2.4,1.4,4.3,0.3,4.3-2.5L349.5,546z"/>
	<linearGradient id="XMLID_54_" gradientUnits="userSpaceOnUse" x1="80.9596" y1="278.8055" x2="350.6589" y2="278.8055">
		<stop  offset="0" style="stop-color:#E6E7E8"/>
		<stop  offset="1" style="stop-color:#EFEFEF"/>
	</linearGradient>
	<path id="XMLID_416_" class="st2" d="M346.3,543.8c2.4,1.4,4.3,0.3,4.3-2.5V168.9c0-2.8-2-6.2-4.3-7.6L91.1,11.3
		c-1.2-0.7-2.3-0.8-3.1-0.3l-7.1,6l255.2,150c2.4,1.4,4.3,4.8,4.3,7.6V547L346.3,543.8z"/>
	<g id="XMLID_412_">
		<linearGradient id="XMLID_88_" gradientUnits="userSpaceOnUse" x1="79.8108" y1="282.6651" x2="343.7183" y2="282.6651">
			<stop  offset="0" style="stop-color:#EFEFEF"/>
			<stop  offset="1" style="stop-color:#F9F9FA"/>
		</linearGradient>
		<path id="XMLID_53_" class="st3" d="M79.8,14.9c0-0.6,0.4-0.8,0.9-0.5l262.2,154.1c0.5,0.3,0.9,1,0.9,1.5v380.5
			c0,0.5-0.4,0.8-0.9,0.5L80.7,395.1c-0.5-0.3-0.9-1-0.9-1.5V14.9z"/>
	</g>
	<g id="XMLID_402_">
		<path id="XMLID_51_" class="st4" d="M80.7,32c-0.5-0.3-0.9-0.1-0.9,0.5V70c0,0.6,0.4,1.2,0.9,1.5l262.2,154.1
			c0.5,0.3,0.9,0.1,0.9-0.5v-37.4c0-0.6-0.4-1.2-0.9-1.5L80.7,32z"/>
	</g>
	<g id="XMLID_392_">
		<linearGradient id="XMLID_89_" gradientUnits="userSpaceOnUse" x1="79.8109" y1="111.0917" x2="343.7182" y2="111.0917">
			<stop  offset="0" style="stop-color:#F8F8F9"/>
			<stop  offset="1" style="stop-color:#F9F9FA"/>
		</linearGradient>
		<path id="XMLID_49_" class="st5" d="M80.7,14.3c-0.5-0.3-0.9-0.1-0.9,0.5v37.4c0,0.5,0.4,1.2,0.9,1.5l262.2,154.1
			c0.5,0.3,0.9,0.1,0.9-0.5v-37.4c0-0.6-0.4-1.2-0.9-1.5L80.7,14.3z"/>
	</g>
	<circle id="XMLID_391_" class="st6" cx="93.2" cy="41.9" r="4.9"/>
	<circle id="XMLID_389_" class="st7" cx="111.8" cy="51.7" r="4.9"/>
	<circle id="XMLID_388_" class="st8" cx="129" cy="61.5" r="4.9"/>
	<polygon id="XMLID_385_" class="st9" points="111.8,187.9 299.9,295.1 299.9,330.1 111.8,220.2 	"/>
	<g id="XMLID_308_">
		<g id="XMLID_98_">
			<g id="XMLID_164_" class="st10">
				<defs>
					<polygon id="XMLID_193_" class="st10" points="143.3,202.7 146.8,190.1 285,260.5 281.5,273 					"/>
				</defs>
				<clipPath id="XMLID_90_">
					<use xlink:href="#XMLID_193_"  style="overflow:visible;"/>
				</clipPath>
				<g id="XMLID_165_" class="st11">
					<g id="XMLID_166_">
						<g id="XMLID_167_">
							<g id="XMLID_168_">
								<path id="XMLID_192_" class="st12" d="M151.4,192.5c-2.8-1.4-5-0.6-5.8,1.8c-0.4,1.3-0.3,2.6,0.2,3.7
									c0.6,1.2,1.6,2.1,2.9,2.8c0.1,0,0.2,0.1,0.2,0.1c1.1,0.5,2,0.8,2.5,0.9l1.3-4l-2.8-1.5l-0.3,0.9l1.7,0.9l-0.8,2.5
									c-0.3,0-0.7-0.2-1.3-0.5c-0.1,0-0.2-0.1-0.2-0.1c-2-1.1-2.9-3-2.2-5.1c0.6-2,2.3-2.6,4.3-1.5c0.1,0,0.1,0.1,0.2,0.1
									c0.9,0.5,1.4,0.9,1.8,1.4l0.5-0.7c-0.3-0.4-1-1-2-1.5C151.6,192.5,151.5,192.5,151.4,192.5"/>
								<path id="XMLID_189_" class="st12" d="M158.2,199l-1.9,5.9l1.1,0.6l1.9-5.9L158.2,199 M159.4,196.9
									c-0.4-0.2-0.8-0.1-0.9,0.3c-0.1,0.4,0.1,0.8,0.5,1c0,0,0,0,0,0c0.4,0.2,0.8,0.1,0.9-0.3
									C160.1,197.6,159.9,197.2,159.4,196.9C159.5,196.9,159.4,196.9,159.4,196.9"/>
								<path id="XMLID_188_" class="st12" d="M166.3,201.4l-1.2-0.3l-0.5,1.4l-1-0.5l-0.3,0.8l1,0.5l-1,3.2
									c-0.2,0.7-0.3,1.3-0.1,1.8c0.2,0.4,0.5,0.8,1.1,1.1c0,0,0.1,0.1,0.1,0.1c0.4,0.2,0.7,0.3,0.9,0.3l0.2-0.8
									c-0.1,0-0.3-0.1-0.6-0.2c0,0-0.1,0-0.1,0c-0.6-0.3-0.7-0.9-0.5-1.6l1-3.2l1.6,0.9l0.3-0.8l-1.6-0.9L166.3,201.4"/>
								<path id="XMLID_187_" class="st12" d="M172.8,203.7l-2.7,8.7l1.1,0.6l1.1-3.6c0.1-0.2,0.1-0.4,0.2-0.5
									c0.4-0.5,1.1-0.7,1.8-0.3c0,0,0,0,0,0c1,0.6,1.2,1.6,0.9,2.5l-1.1,3.4l1.1,0.6l1.1-3.5c0.7-2-0.5-3.2-1.3-3.7c0,0,0,0,0,0
									c-0.4-0.2-0.8-0.3-1.2-0.3c-0.4,0-0.8,0.1-1,0.3l0,0l1.2-3.7L172.8,203.7"/>
								<path id="XMLID_186_" class="st12" d="M182.2,212.1l-1.1,3.5c-0.7,2.1,0.3,3.2,1.3,3.7c0,0,0.1,0,0.1,0c1,0.5,1.9,0.3,2.3,0
									l0,0l-0.2,1l1,0.5c0.1-0.5,0.3-1,0.5-1.6l1.4-4.3l-1.1-0.6l-1.2,3.6c-0.1,0.2-0.2,0.4-0.3,0.5c-0.3,0.4-1,0.6-1.7,0.2
									c0,0,0,0,0,0c-1-0.6-1.1-1.5-0.8-2.6l1-3.3L182.2,212.1"/>
								<path id="XMLID_183_" class="st12" d="M193.8,224.4C193.8,224.4,193.7,224.4,193.8,224.4c-0.9-0.5-1.4-1.3-1.3-2.2
									c0-0.1,0-0.3,0.1-0.4l0.3-1.1c0-0.2,0.1-0.3,0.2-0.4c0.5-0.7,1.3-0.8,2.1-0.4c0,0,0,0,0.1,0c1.2,0.7,1.5,2,1.1,3.2
									C195.9,224.5,194.9,225,193.8,224.4 M193.4,214.9l-2.3,7.2c-0.2,0.5-0.4,1.1-0.5,1.5l1,0.5l0.4-1l0,0c0.2,1,0.8,1.8,1.7,2.2
									c0,0,0.1,0,0.1,0c1.4,0.7,3,0.4,3.7-1.7c0.6-1.8-0.1-3.6-1.6-4.4c0,0-0.1,0-0.1-0.1c-0.9-0.5-1.8-0.4-2.3,0l0,0l1.2-3.7
									L193.4,214.9"/>
								<path id="XMLID_182_" class="st12" d="M209,226.6l-1.1,3.5c-0.7,2.1,0.3,3.2,1.3,3.7c0,0,0.1,0,0.1,0c1,0.5,1.9,0.3,2.3,0
									l0,0l-0.2,1l1,0.5c0.1-0.5,0.3-1,0.5-1.6l1.4-4.3l-1.1-0.6l-1.2,3.6c-0.1,0.2-0.2,0.4-0.3,0.5c-0.3,0.4-1,0.6-1.7,0.2
									c0,0,0,0,0,0c-1-0.6-1.1-1.5-0.8-2.6l1-3.3L209,226.6"/>
								<path id="XMLID_181_" class="st12" d="M221.1,233.1c-1.3-0.6-2.3-0.3-2.6,0.6c-0.2,0.7,0.1,1.6,1.1,2.6
									c0.7,0.7,1,1.2,0.8,1.7c-0.2,0.5-0.6,0.7-1.4,0.3c0,0,0,0-0.1,0c-0.6-0.3-1.1-0.8-1.3-1.2l-0.5,0.7c0.3,0.5,0.9,1,1.6,1.3
									c0,0,0.1,0,0.1,0.1c1.4,0.7,2.4,0.4,2.7-0.6c0.3-0.9-0.1-1.7-1-2.7c-0.7-0.7-1-1.1-0.8-1.6c0.1-0.4,0.6-0.6,1.2-0.3
									c0,0,0,0,0.1,0c0.6,0.3,1,0.8,1.2,1l0.5-0.6C222.3,233.9,221.8,233.4,221.1,233.1C221.2,233.1,221.1,233.1,221.1,233.1"/>
								<path id="XMLID_178_" class="st12" d="M230.7,241.3l-3.3-1.8c0.3-0.7,1.1-1.4,2.2-0.8c0,0,0,0,0.1,0
									C231,239.3,231,240.6,230.7,241.3 M230,237.9c-1.8-0.9-3.2-0.1-3.8,1.7c-0.6,1.8,0.2,3.6,2.1,4.6c0.1,0,0.1,0.1,0.2,0.1
									c0.9,0.4,1.5,0.6,1.9,0.6l0.1-0.9c-0.4-0.1-0.9-0.2-1.6-0.5c-0.1,0-0.1-0.1-0.2-0.1c-1.1-0.6-1.9-1.7-1.5-3.2l4.3,2.3
									c0-0.1,0.1-0.3,0.2-0.5C232.1,241,232.1,239,230,237.9C230.1,237.9,230,237.9,230,237.9"/>
								<path id="XMLID_177_" class="st12" d="M240,243.3c-0.7-0.4-1.5-0.2-2.1,0.4l-0.1,0l0.3-1.2l-1-0.5c-0.1,0.6-0.3,1.2-0.5,1.9
									l-1.3,4.1l1.1,0.6l1-3.1c0.1-0.2,0.1-0.3,0.2-0.5c0.4-0.7,1.1-1,1.9-0.6c0,0,0,0,0,0c0.2,0.1,0.3,0.2,0.4,0.2l0.3-1
									C240.2,243.5,240.1,243.4,240,243.3C240,243.3,240,243.3,240,243.3"/>
								<path id="XMLID_176_" class="st12" d="M247.7,247.5c-1-0.5-1.8-0.3-2.3,0.1l0,0l0.2-1l-1-0.5c-0.1,0.5-0.3,1-0.5,1.6
									l-1.4,4.3l1.1,0.6l1.1-3.6c0.1-0.2,0.1-0.4,0.2-0.5c0.4-0.5,1.1-0.7,1.8-0.3c0,0,0,0,0,0c1.1,0.6,1.2,1.6,0.9,2.5l-1.1,3.4
									l1.1,0.6l1.1-3.5C249.8,249.2,248.6,248,247.7,247.5C247.8,247.6,247.7,247.5,247.7,247.5"/>
								<path id="XMLID_173_" class="st12" d="M255.1,257.9C255.1,257.9,255.1,257.8,255.1,257.9c-0.6-0.3-1-0.9-0.8-1.6
									c0.3-1,1.5-0.7,2.6-0.1c0.1,0.1,0.3,0.1,0.4,0.2l-0.3,1c0,0.1-0.1,0.2-0.2,0.3C256.5,258,255.9,258.3,255.1,257.9
									 M256.9,252.5c-0.7-0.4-1.5-0.5-2.1-0.5l0,0.8c0.5,0,1.1,0.1,1.7,0.4c0,0,0.1,0,0.1,0c1.3,0.7,1.1,1.6,1,2.1l0,0.1
									c-0.1-0.1-0.2-0.1-0.4-0.2c-2.2-1.1-3.6-1-4,0.4c-0.3,0.9,0.1,2,1.3,2.7c0,0,0,0,0.1,0c0.8,0.4,1.6,0.4,2.1,0.1l0,0
									l-0.2,0.8l1,0.6c0.1-0.4,0.2-1,0.4-1.5l0.7-2.2c0.4-1.2,0.3-2.7-1.6-3.7C257,252.6,257,252.6,256.9,252.5"/>
								<path id="XMLID_172_" class="st12" d="M267.3,258.2c-1-0.5-1.7-0.3-2.2,0.1l0,0l0.3-1l-1-0.5c-0.1,0.5-0.3,1-0.5,1.6
									l-1.4,4.3l1.1,0.6l1.1-3.6c0.1-0.2,0.1-0.4,0.3-0.5c0.3-0.4,1-0.7,1.7-0.3c0,0,0,0,0,0c0.8,0.5,1.1,1.4,0.8,2.3l-1.1,3.5
									l1.1,0.6l1.2-3.7c0.1-0.2,0.2-0.4,0.3-0.5c0.3-0.4,1-0.6,1.6-0.3c0,0,0,0,0,0c0.9,0.5,1.1,1.4,0.8,2.5l-1.1,3.3l1.1,0.6
									l1.1-3.5c0.7-2-0.4-3.2-1.2-3.7c0,0-0.1,0-0.1,0c-0.5-0.3-1-0.3-1.4-0.3c-0.3,0.1-0.6,0.2-0.9,0.4l0,0
									C268.7,259.5,268.2,258.7,267.3,258.2C267.4,258.2,267.3,258.2,267.3,258.2"/>
								<path id="XMLID_169_" class="st12" d="M281.4,268.8l-3.3-1.8c0.3-0.7,1.1-1.4,2.2-0.8c0,0,0,0,0.1,0
									C281.7,266.9,281.6,268.1,281.4,268.8 M280.7,265.5c-1.8-0.9-3.2-0.1-3.8,1.7c-0.6,1.8,0.2,3.6,2.1,4.6
									c0.1,0,0.1,0.1,0.2,0.1c0.9,0.4,1.5,0.6,1.9,0.6l0-0.9c-0.4,0-0.9-0.2-1.6-0.5c-0.1,0-0.1-0.1-0.2-0.1
									c-1.1-0.6-1.9-1.7-1.5-3.2l4.3,2.3c0-0.1,0.1-0.3,0.2-0.5C282.8,268.6,282.8,266.6,280.7,265.5
									C280.7,265.5,280.7,265.5,280.7,265.5"/>
							</g>
						</g>
					</g>
				</g>
			</g>
		</g>
	</g>
	<g id="XMLID_78_">
		<g id="XMLID_97_">
			<g id="XMLID_229_" class="st10">
				<defs>
					<polygon id="XMLID_260_" class="st10" points="122.1,218.6 125.5,206.6 201.7,245.4 198.3,257.4 					"/>
				</defs>
				<clipPath id="XMLID_91_">
					<use xlink:href="#XMLID_260_"  style="overflow:visible;"/>
				</clipPath>
				<g id="XMLID_230_" class="st13">
					<g id="XMLID_231_">
						<g id="XMLID_232_">
							<g id="XMLID_233_">
								<path id="XMLID_257_" class="st14" d="M129,214.4l-2.6-1.4l1.6-1.9c0.3-0.4,0.6-0.8,0.9-1.3l0,0c0,0.5-0.1,1.1,0,1.7
									L129,214.4 M128.6,208.5l-5.5,6.7l1.1,0.6l1.7-2.1l3,1.6l0.1,3.1l1.2,0.6l-0.3-9.8L128.6,208.5"/>
								<polyline id="XMLID_256_" class="st14" points="134.2,211 131.4,219.7 132.6,220.3 135.3,211.6 134.2,211 								"/>
								<path id="XMLID_253_" class="st14" d="M139.4,219.9l-3.3-1.8c0.3-0.7,1.1-1.4,2.2-0.9c0,0,0,0,0,0
									C139.7,218,139.7,219.2,139.4,219.9 M138.7,216.5c-1.7-0.9-3.2-0.1-3.8,1.7c-0.6,1.8,0.2,3.6,2.1,4.6c0.1,0,0.1,0.1,0.2,0.1
									c0.9,0.5,1.6,0.6,2,0.6l0.1-0.9c-0.4-0.1-0.9-0.2-1.6-0.5c-0.1,0-0.1-0.1-0.2-0.1c-1.1-0.6-1.9-1.7-1.5-3.2l4.3,2.3
									c0-0.1,0.1-0.3,0.2-0.5C140.8,219.7,140.8,217.7,138.7,216.5C138.7,216.6,138.7,216.6,138.7,216.5"/>
								<path id="XMLID_250_" class="st14" d="M145.8,223.3l-3.3-1.8c0.3-0.7,1.1-1.4,2.2-0.9c0,0,0,0,0,0
									C146,221.4,146,222.7,145.8,223.3 M145,220c-1.8-0.9-3.2-0.1-3.8,1.7c-0.6,1.8,0.2,3.6,2.1,4.6c0.1,0,0.1,0.1,0.2,0.1
									c0.9,0.4,1.5,0.6,2,0.6l0-0.9c-0.4-0.1-0.9-0.2-1.6-0.5c-0.1,0-0.1-0.1-0.2-0.1c-1.1-0.6-1.9-1.7-1.5-3.2l4.3,2.3
									c0-0.1,0.1-0.3,0.2-0.5C147.1,223.1,147.1,221.1,145,220C145.1,220,145.1,220,145,220"/>
								<path id="XMLID_249_" class="st14" d="M148.2,221.8l0.6,6.7c0,0.2,0,0.3,0,0.3c0,0.1-0.1,0.1-0.2,0.2
									c-0.4,0.4-0.9,0.6-1.3,0.7c-0.4,0.1-0.8,0.1-1.1,0l0,1.1c0.3,0.1,0.9,0.2,1.6,0c1-0.2,1.8-1,3.3-2.6l3-3.3l-1.2-0.6
									l-2.3,2.8c-0.3,0.4-0.6,0.7-0.8,1l0,0c0-0.4,0-1,0-1.4l-0.3-4.2L148.2,221.8"/>
								<path id="XMLID_248_" class="st14" d="M154.9,225.5l-1.1,3.5c-0.7,2.1,0.3,3.2,1.3,3.7c0,0,0.1,0,0.1,0
									c1.1,0.5,1.9,0.3,2.3,0l0,0l-0.2,1l1,0.5c0.1-0.5,0.3-1,0.5-1.6l1.4-4.3l-1.1-0.6l-1.1,3.6c-0.1,0.2-0.2,0.4-0.3,0.5
									c-0.3,0.4-1,0.6-1.7,0.2c0,0,0,0,0,0c-1-0.6-1.1-1.5-0.8-2.6l1-3.3L154.9,225.5"/>
								<path id="XMLID_247_" class="st14" d="M161.3,228.9l0,6.9l1,0.6l1.9-2.3c0.4-0.5,0.8-1,1.2-1.7l0,0
									c-0.1,0.8-0.1,1.5-0.1,2.2l0,3.3l1,0.6l3.8-4.9l-1.1-0.6l-1.8,2.5c-0.4,0.6-0.8,1.1-1.1,1.7l0,0c0.1-0.7,0.1-1.4,0.1-2.2
									l0-3.5l-0.9-0.5l-1.9,2.5c-0.4,0.5-0.8,1.1-1.1,1.6l0,0c0.1-0.7,0.1-1.4,0.1-2.1l0.1-3.4L161.3,228.9"/>
								<path id="XMLID_244_" class="st14" d="M171.4,240.5C171.4,240.5,171.3,240.5,171.4,240.5c-0.6-0.3-1-0.9-0.8-1.6
									c0.3-1,1.5-0.7,2.6-0.1c0.1,0.1,0.3,0.1,0.4,0.2l-0.3,1c0,0.1-0.1,0.2-0.2,0.3C172.8,240.7,172.2,240.9,171.4,240.5
									 M173.2,235.2c-0.7-0.4-1.5-0.5-2.1-0.5l0,0.8c0.5,0,1.1,0.1,1.7,0.4c0,0,0.1,0,0.1,0c1.3,0.7,1.1,1.6,1,2.1l0,0.1
									c-0.1-0.1-0.2-0.1-0.3-0.2c-2.2-1.1-3.6-1-4,0.4c-0.3,0.9,0.1,2,1.3,2.7c0,0,0,0,0.1,0c0.9,0.4,1.6,0.4,2.1,0.1l0,0
									l-0.1,0.8l1,0.6c0-0.4,0.2-1,0.3-1.5l0.7-2.2c0.4-1.2,0.3-2.7-1.6-3.7C173.3,235.3,173.2,235.2,173.2,235.2"/>
								<path id="XMLID_241_" class="st14" d="M178.3,244.2C178.3,244.2,178.3,244.2,178.3,244.2c-1.3-0.7-1.6-2-1.2-3.2
									c0.4-1.3,1.4-1.9,2.5-1.3c0,0,0,0,0.1,0c0.8,0.5,1.3,1.3,1.2,2.1c0,0.2,0,0.3-0.1,0.5l-0.3,1c-0.1,0.2-0.1,0.3-0.2,0.4
									C179.9,244.5,179.1,244.6,178.3,244.2 M182.5,237.1l-1.1,3.5l0,0c-0.1-0.6-0.6-1.4-1.6-1.9c0,0,0,0-0.1,0
									c-1.5-0.8-3.1-0.2-3.7,1.7c-0.6,1.8,0.2,3.6,1.7,4.4c0,0,0,0,0.1,0c1,0.5,1.9,0.4,2.4-0.1l0,0l-0.3,1.1l1,0.5
									c0.1-0.4,0.3-1,0.4-1.6l2.2-7.2L182.5,237.1"/>
								<path id="XMLID_238_" class="st14" d="M184.7,247.7C184.6,247.7,184.6,247.7,184.7,247.7c-0.6-0.3-1-0.9-0.8-1.6
									c0.3-1,1.5-0.7,2.7-0.1c0.1,0.1,0.2,0.1,0.4,0.2l-0.3,1c0,0.1-0.1,0.2-0.2,0.3C186.1,247.9,185.4,248.1,184.7,247.7
									 M186.5,242.4c-0.7-0.4-1.5-0.5-2.1-0.5l0,0.8c0.5,0,1.1,0.1,1.7,0.4c0,0,0,0,0.1,0c1.3,0.7,1.1,1.6,1,2.1l0,0.1
									c-0.1-0.1-0.2-0.1-0.3-0.2c-2.2-1.1-3.6-1-4.1,0.4c-0.3,0.9,0.1,2.1,1.3,2.7c0,0,0,0,0.1,0c0.8,0.4,1.6,0.4,2.1,0.1l0,0
									l-0.1,0.8l1,0.6c0.1-0.4,0.2-1,0.3-1.5l0.7-2.2c0.4-1.2,0.3-2.7-1.6-3.7C186.5,242.4,186.5,242.4,186.5,242.4"/>
								<path id="XMLID_235_" class="st14" d="M191.4,251.3C191.4,251.3,191.4,251.3,191.4,251.3c-1.1-0.6-1.3-2.1-0.7-4.2
									c0.7-2.1,1.7-2.9,2.7-2.4c0,0,0,0,0,0c1.2,0.6,1.3,2.2,0.7,4.1C193.5,250.9,192.5,251.9,191.4,251.3 M193.7,243.9
									c-1.6-0.8-3.3,0-4.1,2.6c-0.8,2.6-0.2,4.7,1.4,5.6c0,0,0.1,0,0.1,0c1.8,0.9,3.3,0,4.1-2.7
									C196,246.9,195.5,244.9,193.7,243.9C193.7,243.9,193.7,243.9,193.7,243.9"/>
								<polyline id="XMLID_234_" class="st14" points="200,247.5 197.9,247.4 197.9,248.4 199.5,248.4 199.6,248.4 197.4,255.4 
									198.5,256 201,248 200,247.5 								"/>
							</g>
						</g>
					</g>
				</g>
			</g>
		</g>
	</g>
	<path id="XMLID_76_" class="st14" d="M262.4,273.7"/>
	<polygon id="XMLID_36_" class="st15" points="270.4,278.8 269.4,311.3 298.9,328.6 298.9,295 	"/>
	
		<ellipse id="XMLID_35_" transform="matrix(0.9785 -0.2063 0.2063 0.9785 -55.9392 65.2511)" class="st16" cx="284.9" cy="300.8" rx="7.6" ry="8.7"/>
	<line id="XMLID_34_" class="st16" x1="284.9" y1="309.9" x2="284.9" y2="316.7"/>
	<path id="XMLID_32_" class="st16" d="M289.8,301.4c0,2.5-1.1,4.6-2.5,4.6"/>
</g>
<g id="XMLID_18_">
	<g id="XMLID_5_">
		<linearGradient id="XMLID_92_" gradientUnits="userSpaceOnUse" x1="24.7948" y1="316.6048" x2="288.7022" y2="316.6048">
			<stop  offset="0" style="stop-color:#EFEFEF"/>
			<stop  offset="1" style="stop-color:#F4F4F4"/>
		</linearGradient>
		<path id="XMLID_46_" class="st17" d="M24.8,48.8c0-0.5,0.4-0.8,0.9-0.5l262.2,154.1c0.5,0.3,0.9,1,0.9,1.5v380.5
			c0,0.5-0.4,0.8-0.9,0.5L25.7,429.1c-0.5-0.3-0.9-1-0.9-1.5V48.8z"/>
	</g>
	<linearGradient id="XMLID_93_" gradientUnits="userSpaceOnUse" x1="17.8541" y1="320.4667" x2="287.566" y2="320.4667">
		<stop  offset="0" style="stop-color:#E2E2E2"/>
		<stop  offset="1" style="stop-color:#EFEFEF"/>
	</linearGradient>
	<path id="XMLID_12_" class="st18" d="M287.6,583.8L32.3,432c-2.4-1.4-4.3-4.8-4.3-7.6V53.7c0-1.4,0.5-2.4,1.3-2.8l-7.1,6
		c-2.4-1.4-4.3-0.3-4.3,2.5v370.7c0,2.8,1.9,6.2,4.3,7.6l255.3,151.7c2.4,1.4,4.3,0.3,4.3-2.5L287.6,583.8z"/>
	<linearGradient id="XMLID_94_" gradientUnits="userSpaceOnUse" x1="19.0028" y1="316.606" x2="288.7022" y2="316.606">
		<stop  offset="0" style="stop-color:#E6E7E8"/>
		<stop  offset="1" style="stop-color:#EFEFEF"/>
	</linearGradient>
	<path id="XMLID_11_" class="st19" d="M284.4,581.6c2.4,1.4,4.3,0.3,4.3-2.5V206.7c0-2.8-2-6.2-4.3-7.6L29.1,49.1
		c-1.2-0.7-2.3-0.8-3.1-0.3l-7.1,6l255.2,150c2.4,1.4,4.3,4.8,4.3,7.6v372.4L284.4,581.6z"/>
	<g id="XMLID_1_">
		<linearGradient id="XMLID_99_" gradientUnits="userSpaceOnUse" x1="17.8541" y1="320.4656" x2="281.7615" y2="320.4656">
			<stop  offset="0" style="stop-color:#EFEFEF"/>
			<stop  offset="1" style="stop-color:#F9F9FA"/>
		</linearGradient>
		<path id="XMLID_47_" class="st20" d="M17.9,52.7c0-0.5,0.4-0.8,0.9-0.5l262.2,154.1c0.5,0.3,0.9,1,0.9,1.5v380.5
			c0,0.5-0.4,0.8-0.9,0.5L18.7,432.9c-0.5-0.3-0.9-1-0.9-1.5V52.7z"/>
	</g>
	<g id="XMLID_15_">
		<path id="XMLID_44_" class="st4" d="M18.7,69.8c-0.5-0.3-0.9-0.1-0.9,0.5v37.4c0,0.6,0.4,1.2,0.9,1.5l262.2,154.1
			c0.5,0.3,0.9,0.1,0.9-0.5v-37.4c0-0.5-0.4-1.2-0.9-1.5L18.7,69.8z"/>
	</g>
	<g id="XMLID_13_">
		<linearGradient id="XMLID_100_" gradientUnits="userSpaceOnUse" x1="17.8541" y1="148.8922" x2="281.7615" y2="148.8922">
			<stop  offset="0" style="stop-color:#F8F8F9"/>
			<stop  offset="1" style="stop-color:#F9F9FA"/>
		</linearGradient>
		<path id="XMLID_50_" class="st21" d="M18.7,52.1c-0.5-0.3-0.9-0.1-0.9,0.5V90c0,0.6,0.4,1.2,0.9,1.5l262.2,154.1
			c0.5,0.3,0.9,0.1,0.9-0.5v-37.4c0-0.6-0.4-1.2-0.9-1.5L18.7,52.1z"/>
	</g>
	<circle id="XMLID_4_" class="st6" cx="31.3" cy="79.7" r="4.9"/>
	<circle id="XMLID_8_" class="st7" cx="49.8" cy="89.5" r="4.9"/>
	<circle id="XMLID_14_" class="st8" cx="67" cy="99.3" r="4.9"/>
	<polygon id="XMLID_7_" class="st9" points="49.8,225.7 238,332.9 238,367.9 49.8,258 	"/>
	<g id="XMLID_16_">
		<g id="XMLID_95_">
			<g id="XMLID_133_" class="st10">
				<defs>
					<polygon id="XMLID_162_" class="st10" points="81.4,240.5 84.9,227.9 223,298.3 219.5,310.8 					"/>
				</defs>
				<clipPath id="XMLID_101_">
					<use xlink:href="#XMLID_162_"  style="overflow:visible;"/>
				</clipPath>
				<g id="XMLID_134_" class="st22">
					<g id="XMLID_135_">
						<g id="XMLID_136_">
							<g id="XMLID_137_">
								<path id="XMLID_161_" class="st12" d="M89.5,230.3c-2.8-1.4-5-0.6-5.8,1.8c-0.4,1.3-0.3,2.6,0.2,3.7
									c0.6,1.2,1.6,2.1,2.9,2.8c0.1,0,0.2,0.1,0.2,0.1c1.1,0.5,2,0.8,2.5,0.9l1.3-4l-2.8-1.5l-0.3,0.9l1.7,0.9l-0.8,2.5
									c-0.3,0-0.7-0.1-1.3-0.5c-0.1,0-0.2-0.1-0.2-0.1c-2-1.1-2.9-3-2.2-5.1c0.6-2,2.3-2.6,4.3-1.5c0.1,0,0.1,0.1,0.2,0.1
									c0.9,0.5,1.4,0.9,1.8,1.4l0.5-0.7c-0.3-0.4-1-1-2-1.5C89.6,230.3,89.5,230.3,89.5,230.3"/>
								<path id="XMLID_158_" class="st12" d="M96.2,236.8l-1.9,5.9l1.1,0.6l1.9-5.9L96.2,236.8 M97.5,234.7
									c-0.4-0.2-0.8-0.1-0.9,0.3c-0.1,0.4,0.1,0.8,0.5,1c0,0,0,0,0,0c0.4,0.2,0.8,0.1,0.9-0.3C98.1,235.4,97.9,235,97.5,234.7
									C97.5,234.7,97.5,234.7,97.5,234.7"/>
								<path id="XMLID_157_" class="st12" d="M104.4,239.2l-1.2-0.3l-0.5,1.4l-1-0.5l-0.3,0.8l1,0.5l-1,3.2
									c-0.2,0.7-0.3,1.3-0.1,1.8c0.2,0.4,0.5,0.8,1.1,1.1c0,0,0.1,0.1,0.1,0.1c0.4,0.2,0.7,0.3,0.9,0.3l0.2-0.8
									c-0.1,0-0.3-0.1-0.6-0.2c0,0-0.1,0-0.1,0c-0.6-0.3-0.7-0.9-0.5-1.6l1-3.2l1.6,0.9l0.3-0.8l-1.6-0.9L104.4,239.2"/>
								<path id="XMLID_156_" class="st12" d="M110.8,241.5l-2.7,8.7l1.1,0.6l1.1-3.6c0.1-0.2,0.1-0.4,0.2-0.5
									c0.4-0.5,1.1-0.7,1.8-0.3c0,0,0,0,0,0c1.1,0.6,1.2,1.6,0.9,2.5l-1.1,3.4l1.1,0.6l1.1-3.5c0.7-2-0.5-3.2-1.3-3.7c0,0,0,0,0,0
									c-0.4-0.2-0.8-0.3-1.2-0.3c-0.4,0-0.8,0.1-1,0.3l0,0l1.2-3.7L110.8,241.5"/>
								<path id="XMLID_155_" class="st12" d="M120.3,249.9l-1.1,3.5c-0.7,2.1,0.3,3.2,1.3,3.7c0,0,0.1,0,0.1,0c1,0.5,1.9,0.3,2.3,0
									l0,0l-0.2,1l1,0.5c0.1-0.5,0.3-1,0.5-1.6l1.4-4.3l-1.1-0.6l-1.1,3.6c-0.1,0.2-0.2,0.4-0.3,0.5c-0.3,0.4-1,0.6-1.7,0.2
									c0,0,0,0,0,0c-1-0.6-1.1-1.5-0.8-2.6l1-3.3L120.3,249.9"/>
								<path id="XMLID_152_" class="st12" d="M131.8,262.2C131.8,262.2,131.8,262.2,131.8,262.2c-0.9-0.5-1.4-1.3-1.3-2.2
									c0-0.1,0-0.3,0.1-0.4l0.3-1.1c0-0.2,0.1-0.3,0.2-0.4c0.5-0.7,1.3-0.8,2.1-0.4c0,0,0,0,0.1,0c1.2,0.7,1.5,2,1.1,3.2
									C133.9,262.3,133,262.8,131.8,262.2 M131.4,252.7l-2.3,7.2c-0.2,0.5-0.4,1.1-0.5,1.5l1,0.5l0.4-1l0,0c0.2,1,0.8,1.8,1.7,2.2
									c0,0,0.1,0,0.1,0c1.4,0.7,3,0.4,3.7-1.7c0.6-1.8-0.1-3.6-1.6-4.4c0,0-0.1,0-0.1-0.1c-0.9-0.5-1.8-0.4-2.3,0l0,0l1.2-3.7
									L131.4,252.7"/>
								<path id="XMLID_151_" class="st12" d="M147,264.4l-1.1,3.5c-0.7,2.1,0.3,3.2,1.3,3.7c0,0,0.1,0,0.1,0c1,0.5,1.9,0.3,2.3,0
									l0,0l-0.2,1l1,0.5c0.1-0.5,0.3-1,0.5-1.6l1.4-4.3l-1.1-0.6l-1.2,3.6c-0.1,0.2-0.2,0.4-0.3,0.5c-0.3,0.4-1,0.6-1.7,0.2
									c0,0,0,0,0,0c-1-0.6-1.1-1.5-0.8-2.6l1-3.3L147,264.4"/>
								<path id="XMLID_150_" class="st12" d="M159.1,270.9c-1.3-0.6-2.3-0.3-2.6,0.6c-0.2,0.7,0.1,1.6,1.1,2.6
									c0.7,0.7,1,1.2,0.8,1.7c-0.1,0.5-0.6,0.7-1.4,0.3c0,0-0.1,0-0.1,0c-0.6-0.3-1.1-0.8-1.3-1.2l-0.5,0.7c0.4,0.5,0.9,1,1.6,1.3
									c0,0,0.1,0,0.1,0.1c1.4,0.7,2.4,0.4,2.7-0.6c0.3-0.9-0.1-1.7-1-2.7c-0.7-0.7-1-1.1-0.8-1.6c0.1-0.4,0.6-0.6,1.2-0.3
									c0,0,0,0,0.1,0c0.6,0.3,0.9,0.7,1.1,1l0.5-0.6C160.4,271.7,159.9,271.2,159.1,270.9C159.2,270.9,159.2,270.9,159.1,270.9"/>
								<path id="XMLID_147_" class="st12" d="M168.8,279l-3.3-1.8c0.3-0.7,1.1-1.4,2.2-0.8c0,0,0,0,0.1,0
									C169,277.1,169,278.4,168.8,279 M168,275.7c-1.7-0.9-3.2-0.1-3.8,1.7c-0.6,1.8,0.2,3.6,2.1,4.6c0.1,0,0.1,0.1,0.2,0.1
									c0.9,0.4,1.5,0.6,1.9,0.6l0.1-0.9c-0.4-0.1-0.9-0.2-1.6-0.5c-0.1,0-0.1-0.1-0.2-0.1c-1.1-0.6-1.9-1.7-1.5-3.2l4.3,2.3
									c0-0.1,0.1-0.3,0.2-0.5C170.1,278.8,170.1,276.8,168,275.7C168.1,275.7,168.1,275.7,168,275.7"/>
								<path id="XMLID_146_" class="st12" d="M178,281.1c-0.7-0.4-1.5-0.2-2.1,0.4l-0.1,0l0.3-1.2l-1-0.5c-0.1,0.6-0.3,1.2-0.5,1.9
									l-1.3,4.1l1.1,0.6l1-3.2c0.1-0.2,0.1-0.3,0.2-0.5c0.4-0.7,1.1-1,1.9-0.6c0,0,0,0,0,0c0.2,0.1,0.3,0.2,0.4,0.2l0.3-1
									C178.3,281.3,178.2,281.2,178,281.1C178,281.1,178,281.1,178,281.1"/>
								<path id="XMLID_145_" class="st12" d="M185.7,285.3c-1-0.5-1.8-0.3-2.3,0.1l0,0l0.2-1l-1-0.5c-0.1,0.5-0.3,1-0.5,1.6
									l-1.4,4.3l1.1,0.6l1.1-3.6c0.1-0.2,0.1-0.4,0.2-0.5c0.4-0.5,1.1-0.7,1.8-0.3c0,0,0,0,0,0c1.1,0.6,1.2,1.6,0.9,2.5L185,292
									l1.1,0.6l1.1-3.5C187.8,287,186.7,285.8,185.7,285.3C185.8,285.4,185.8,285.3,185.7,285.3"/>
								<path id="XMLID_142_" class="st12" d="M193.1,295.7C193.1,295.7,193.1,295.6,193.1,295.7c-0.6-0.3-1-0.9-0.8-1.6
									c0.3-1,1.5-0.7,2.6-0.1c0.1,0.1,0.3,0.1,0.4,0.2l-0.3,1c0,0.1-0.1,0.2-0.2,0.3C194.5,295.8,193.9,296.1,193.1,295.7
									 M195,290.3c-0.7-0.4-1.5-0.5-2.1-0.5l0,0.8c0.5,0,1.1,0.1,1.7,0.4c0,0,0.1,0,0.1,0c1.3,0.7,1.1,1.6,1,2.1l0,0.1
									c-0.1-0.1-0.2-0.1-0.4-0.2c-2.2-1.1-3.6-1-4,0.4c-0.3,0.9,0.1,2,1.3,2.7c0,0,0,0,0.1,0c0.8,0.4,1.6,0.4,2.1,0.1l0,0
									l-0.2,0.8l1,0.6c0.1-0.4,0.2-1,0.4-1.5l0.7-2.2c0.4-1.2,0.3-2.7-1.6-3.7C195,290.4,195,290.4,195,290.3"/>
								<path id="XMLID_141_" class="st12" d="M205.4,296c-1-0.5-1.7-0.3-2.2,0.1l0,0l0.3-1l-1-0.5c-0.1,0.5-0.3,1-0.5,1.6l-1.4,4.3
									l1.1,0.6l1.1-3.6c0.1-0.2,0.1-0.4,0.3-0.5c0.3-0.4,1-0.7,1.7-0.3c0,0,0,0,0,0c0.8,0.5,1.1,1.4,0.8,2.3l-1.1,3.5l1.1,0.6
									l1.2-3.7c0.1-0.2,0.2-0.4,0.3-0.5c0.3-0.4,1-0.6,1.6-0.3c0,0,0,0,0,0c0.9,0.5,1.1,1.4,0.8,2.5l-1.1,3.3l1.1,0.6l1.1-3.5
									c0.7-2.1-0.4-3.2-1.2-3.7c0,0-0.1,0-0.1,0c-0.5-0.3-1-0.3-1.4-0.3c-0.3,0-0.6,0.2-0.9,0.4l0,0
									C206.8,297.3,206.3,296.5,205.4,296C205.4,296,205.4,296,205.4,296"/>
								<path id="XMLID_138_" class="st12" d="M219.5,306.6l-3.3-1.8c0.3-0.7,1.1-1.4,2.2-0.8c0,0,0,0,0.1,0
									C219.7,304.7,219.7,305.9,219.5,306.6 M218.7,303.2c-1.7-0.9-3.2-0.1-3.8,1.7c-0.6,1.8,0.2,3.6,2.1,4.6
									c0.1,0,0.1,0.1,0.2,0.1c0.9,0.4,1.5,0.6,1.9,0.6l0.1-0.9c-0.4,0-0.9-0.2-1.6-0.5c-0.1,0-0.1-0.1-0.2-0.1
									c-1.1-0.6-1.9-1.7-1.5-3.2l4.3,2.3c0-0.1,0.1-0.3,0.2-0.5c0.3-1.1,0.4-3.1-1.6-4.2C218.8,303.3,218.7,303.3,218.7,303.2"/>
							</g>
						</g>
					</g>
				</g>
			</g>
		</g>
	</g>
	<g id="XMLID_19_">
		<g id="XMLID_96_">
			<g id="XMLID_195_" class="st10">
				<defs>
					<polygon id="XMLID_228_" class="st10" points="60.2,256.4 63.5,244.4 139.7,283.2 136.4,295.2 					"/>
				</defs>
				<clipPath id="XMLID_102_">
					<use xlink:href="#XMLID_228_"  style="overflow:visible;"/>
				</clipPath>
				<g id="XMLID_196_" class="st23">
					<g id="XMLID_197_">
						<g id="XMLID_198_">
							<g id="XMLID_199_">
								<path id="XMLID_223_" class="st14" d="M67,252.2l-2.6-1.4l1.6-1.9c0.3-0.4,0.6-0.8,0.9-1.3l0,0c0,0.5-0.1,1.1,0,1.7
									L67,252.2 M66.6,246.3l-5.5,6.7l1.1,0.6l1.7-2.1l3,1.6l0.1,3.1l1.2,0.6l-0.3-9.8L66.6,246.3"/>
								<polyline id="XMLID_222_" class="st14" points="72.2,248.8 69.5,257.5 70.6,258.1 73.3,249.4 72.2,248.8 								"/>
								<path id="XMLID_219_" class="st14" d="M77.5,257.7l-3.3-1.8c0.3-0.7,1.1-1.4,2.2-0.9c0,0,0,0,0,0
									C77.7,255.8,77.7,257,77.5,257.7 M76.7,254.4c-1.8-0.9-3.2-0.1-3.8,1.7c-0.6,1.8,0.2,3.6,2.1,4.6c0.1,0,0.1,0.1,0.2,0.1
									c0.9,0.4,1.5,0.6,1.9,0.6l0.1-0.9c-0.4-0.1-0.9-0.2-1.6-0.5c-0.1,0-0.1-0.1-0.2-0.1c-1.1-0.6-1.9-1.7-1.5-3.2l4.3,2.3
									c0-0.1,0.1-0.3,0.2-0.5C78.8,257.5,78.8,255.5,76.7,254.4C76.8,254.4,76.8,254.4,76.7,254.4"/>
								<path id="XMLID_216_" class="st14" d="M83.8,261.1l-3.3-1.8c0.3-0.7,1.1-1.4,2.2-0.8c0,0,0,0,0,0
									C84.1,259.2,84.1,260.5,83.8,261.1 M83.1,257.8c-1.8-0.9-3.2-0.1-3.8,1.7c-0.6,1.8,0.2,3.6,2.1,4.6c0.1,0,0.1,0.1,0.2,0.1
									c0.9,0.4,1.5,0.6,1.9,0.6l0-0.9c-0.4-0.1-0.9-0.2-1.6-0.5c-0.1,0-0.1-0.1-0.2-0.1c-1.1-0.6-1.9-1.7-1.5-3.2l4.3,2.3
									c0-0.1,0.1-0.3,0.2-0.5C85.2,260.9,85.2,258.9,83.1,257.8C83.1,257.8,83.1,257.8,83.1,257.8"/>
								<path id="XMLID_215_" class="st14" d="M86.2,259.6l0.6,6.7c0,0.2,0,0.3,0,0.3c0,0.1-0.1,0.1-0.2,0.2
									c-0.4,0.4-0.9,0.6-1.3,0.7c-0.4,0.1-0.8,0.1-1.1,0l0,1.1c0.3,0.1,0.9,0.2,1.6,0c1-0.2,1.8-1,3.3-2.6l3-3.3l-1.2-0.6
									l-2.3,2.8c-0.3,0.3-0.6,0.7-0.8,1l0,0c0-0.4,0-1,0-1.4l-0.3-4.2L86.2,259.6"/>
								<path id="XMLID_214_" class="st14" d="M93,263.3l-1.1,3.5c-0.7,2.1,0.3,3.2,1.3,3.7c0,0,0.1,0,0.1,0c1.1,0.5,1.9,0.3,2.3,0
									l0,0l-0.2,1l1,0.5c0.1-0.5,0.3-1,0.5-1.6l1.3-4.3l-1.1-0.6l-1.1,3.6c-0.1,0.2-0.2,0.4-0.3,0.5c-0.3,0.4-1,0.6-1.7,0.2
									c0,0,0,0,0,0c-1-0.5-1.1-1.5-0.8-2.6l1-3.3L93,263.3"/>
								<path id="XMLID_213_" class="st14" d="M99.3,266.7l0,6.9l1,0.6l1.9-2.3c0.4-0.5,0.8-1,1.2-1.7l0,0c-0.1,0.8-0.1,1.5-0.1,2.2
									l0.1,3.3l1,0.6l3.8-4.9l-1.1-0.6l-1.8,2.5c-0.4,0.6-0.8,1.1-1.1,1.7l0,0c0.1-0.7,0.1-1.4,0.1-2.2l0-3.5l-0.9-0.5l-1.9,2.5
									c-0.4,0.5-0.8,1.1-1.1,1.6l0,0c0.1-0.7,0.1-1.4,0.1-2.1l0.1-3.5L99.3,266.7"/>
								<path id="XMLID_210_" class="st14" d="M109.4,278.3C109.4,278.3,109.4,278.3,109.4,278.3c-0.6-0.3-1-0.9-0.8-1.6
									c0.3-1,1.5-0.7,2.6-0.1c0.1,0.1,0.3,0.1,0.4,0.2l-0.3,1c0,0.1-0.1,0.2-0.2,0.3C110.8,278.5,110.2,278.7,109.4,278.3
									 M111.2,273c-0.7-0.4-1.5-0.5-2.1-0.5l0,0.9c0.5,0,1.1,0.1,1.7,0.4c0,0,0.1,0,0.1,0c1.3,0.7,1.1,1.6,1,2.1l0,0.1
									c-0.1-0.1-0.2-0.1-0.3-0.2c-2.2-1.1-3.6-1-4,0.4c-0.3,0.9,0.1,2,1.3,2.7c0,0,0,0,0.1,0c0.9,0.4,1.6,0.4,2.1,0.1l0,0
									l-0.1,0.8l1,0.5c0-0.4,0.2-1,0.3-1.5l0.7-2.2c0.4-1.2,0.3-2.7-1.6-3.7C111.3,273.1,111.3,273,111.2,273"/>
								<path id="XMLID_207_" class="st14" d="M116.4,282C116.4,282,116.3,282,116.4,282c-1.3-0.7-1.6-2-1.2-3.2
									c0.4-1.3,1.4-1.9,2.5-1.3c0,0,0,0,0.1,0c0.8,0.5,1.3,1.3,1.2,2.1c0,0.2,0,0.3-0.1,0.5l-0.3,1c-0.1,0.2-0.1,0.3-0.2,0.4
									C117.9,282.3,117.1,282.4,116.4,282 M120.5,274.9l-1.1,3.5l0,0c-0.1-0.6-0.6-1.4-1.6-1.9c0,0,0,0-0.1,0
									c-1.5-0.8-3.1-0.2-3.7,1.7c-0.6,1.8,0.2,3.6,1.7,4.4c0,0,0.1,0,0.1,0c1,0.5,1.8,0.4,2.4-0.1l0,0l-0.3,1.1l1,0.5
									c0.1-0.4,0.3-1,0.4-1.6l2.2-7.2L120.5,274.9"/>
								<path id="XMLID_204_" class="st14" d="M122.7,285.5C122.7,285.5,122.7,285.5,122.7,285.5c-0.6-0.3-1-0.9-0.8-1.6
									c0.3-1,1.5-0.7,2.6-0.1c0.1,0.1,0.3,0.1,0.4,0.2l-0.3,1c0,0.1-0.1,0.2-0.2,0.3C124.1,285.7,123.5,285.9,122.7,285.5
									 M124.5,280.2c-0.8-0.4-1.5-0.6-2.1-0.5l0,0.8c0.5,0,1.1,0.1,1.7,0.4c0,0,0.1,0,0.1,0c1.3,0.7,1.1,1.6,1,2.1l0,0.1
									c-0.1-0.1-0.2-0.1-0.3-0.2c-2.2-1.1-3.6-1-4.1,0.4c-0.3,0.9,0.1,2.1,1.3,2.7c0,0,0.1,0,0.1,0c0.8,0.4,1.6,0.4,2.1,0.1l0,0
									l-0.1,0.8l1,0.6c0.1-0.4,0.2-1,0.3-1.5l0.7-2.2C126.6,282.7,126.5,281.3,124.5,280.2C124.6,280.2,124.6,280.2,124.5,280.2"
									/>
								<path id="XMLID_201_" class="st14" d="M129.4,289.1C129.4,289.1,129.4,289.1,129.4,289.1c-1.1-0.6-1.3-2.1-0.7-4.2
									c0.7-2.1,1.7-2.9,2.7-2.4c0,0,0,0,0,0c1.2,0.6,1.3,2.2,0.7,4.1C131.5,288.7,130.6,289.7,129.4,289.1 M131.7,281.7
									c-1.6-0.8-3.3,0-4.1,2.6c-0.8,2.6-0.2,4.7,1.4,5.6c0,0,0.1,0,0.1,0c1.8,0.9,3.3,0,4.1-2.7
									C134.1,284.7,133.5,282.7,131.7,281.7C131.8,281.7,131.7,281.7,131.7,281.7"/>
								<polyline id="XMLID_200_" class="st14" points="138.1,285.3 136,285.2 135.9,286.2 137.6,286.2 137.6,286.2 135.4,293.2 
									136.5,293.8 139,285.8 138.1,285.3 								"/>
							</g>
						</g>
					</g>
				</g>
			</g>
		</g>
	</g>
	<path id="XMLID_17_" class="st14" d="M200.5,311.5"/>
	<polygon id="XMLID_22_" class="st15" points="208.4,316.6 207.4,349.1 237,366.4 237,332.8 	"/>
	
		<ellipse id="XMLID_23_" transform="matrix(0.9785 -0.2063 0.2063 0.9785 -65.0723 53.2804)" class="st16" cx="222.9" cy="338.6" rx="7.6" ry="8.7"/>
	<line id="XMLID_28_" class="st16" x1="222.9" y1="347.7" x2="222.9" y2="354.5"/>
	<path id="XMLID_26_" class="st16" d="M227.9,339.2c0,2.5-1.1,4.6-2.5,4.6"/>
</g>
</svg>
